<?xml version="1.0" encoding="UTF-8" standalone="no"?>
<svg
   xmlns:dc="http://purl.org/dc/elements/1.1/"
   xmlns:cc="http://creativecommons.org/ns#"
   xmlns:rdf="http://www.w3.org/1999/02/22-rdf-syntax-ns#"
   xmlns:svg="http://www.w3.org/2000/svg"
   xmlns="http://www.w3.org/2000/svg"
   viewBox="0 0 4000 4000"
   height="4000"
   width="4000"
   xml:space="preserve"
   id="svg2"
   version="1.1"><metadata
     id="metadata8"><rdf:RDF><cc:Work
         rdf:about=""><dc:format>image/svg+xml</dc:format><dc:type
           rdf:resource="http://purl.org/dc/dcmitype/StillImage" /></cc:Work></rdf:RDF></metadata><defs
     id="defs6"><clipPath
       id="clipPath22"
       clipPathUnits="userSpaceOnUse"><path
         id="path20"
         d="M 0,3000 H 3000 V 0 H 0 Z" /></clipPath><clipPath
       id="clipPath182"
       clipPathUnits="userSpaceOnUse"><path
         id="path180"
         d="M 0,3000 H 3000 V 0 H 0 Z" /></clipPath></defs><g
     transform="matrix(1.3333333,0,0,-1.3333333,0,4000)"
     id="g10"><g
       transform="translate(1305.843,1103.1028)"
       id="g12"><path
         id="path14"
         style="fill:#ffffff;fill-opacity:1;fill-rule:nonzero;stroke:none"
         d="m 0,0 -4.934,-5.011 v -6.976 h -3.854 v 26.98 h 3.854 v -15.07 l 14.647,15.07 h 4.394 L 2.583,2.852 14.839,-11.987 H 10.33 Z" /></g><g
       id="g16"><g
         clip-path="url(#clipPath22)"
         id="g18"><g
           transform="translate(1354.1375,1104.6057)"
           id="g24"><path
             id="path26"
             style="fill:#ffffff;fill-opacity:1;fill-rule:nonzero;stroke:none"
             d="m 0,0 c 0,5.975 -4.471,10.368 -10.445,10.368 -6.052,0 -10.523,-4.393 -10.523,-10.368 0,-5.975 4.471,-10.368 10.523,-10.368 C -4.471,-10.368 0,-5.975 0,0 m -24.822,0 c 0,7.901 6.09,13.799 14.377,13.799 8.209,0 14.299,-5.859 14.299,-13.799 0,-7.94 -6.09,-13.799 -14.299,-13.799 -8.287,0 -14.377,5.898 -14.377,13.799" /></g><g
           transform="translate(1369.1292,1094.1985)"
           id="g28"><path
             id="path30"
             style="fill:#ffffff;fill-opacity:1;fill-rule:nonzero;stroke:none"
             d="m 0,0 1.426,3.007 c 2.005,-1.812 5.435,-3.122 8.904,-3.122 4.664,0 6.668,1.811 6.668,4.163 0,6.591 -16.343,2.428 -16.343,12.449 0,4.163 3.238,7.709 10.33,7.709 3.161,0 6.437,-0.848 8.673,-2.39 l -1.272,-3.084 c -2.352,1.504 -5.011,2.198 -7.401,2.198 -4.587,0 -6.552,-1.927 -6.552,-4.279 0,-6.59 16.342,-2.466 16.342,-12.372 0,-4.125 -3.315,-7.671 -10.445,-7.671 C 6.206,-3.392 2.159,-2.004 0,0" /></g><g
           transform="translate(1428.2542,1091.1155)"
           id="g32"><path
             id="path34"
             style="fill:#ffffff;fill-opacity:1;fill-rule:nonzero;stroke:none"
             d="M 0,0 -0.039,19.657 -9.79,3.276 h -1.773 l -9.752,16.266 V 0 h -3.7 v 26.98 h 3.161 L -10.6,8.017 0.501,26.98 H 3.662 L 3.7,0 Z" /></g><g
           transform="translate(1467.3352,1094.469)"
           id="g36"><path
             id="path38"
             style="fill:#ffffff;fill-opacity:1;fill-rule:nonzero;stroke:none"
             d="M 0,0 V -3.354 H -19.58 V 23.627 H -0.54 V 20.273 H -15.726 V 11.987 H -2.197 V 8.711 H -15.726 V 0 Z" /></g><g
           transform="translate(1486.6438,1114.7424)"
           id="g40"><path
             id="path42"
             style="fill:#ffffff;fill-opacity:1;fill-rule:nonzero;stroke:none"
             d="M 0,0 H -9.25 V 3.354 H 13.066 V 0 H 3.816 V -23.627 H 0 Z" /></g><g
           transform="translate(1533.8586,1104.6057)"
           id="g44"><path
             id="path46"
             style="fill:#ffffff;fill-opacity:1;fill-rule:nonzero;stroke:none"
             d="m 0,0 c 0,5.975 -4.471,10.368 -10.445,10.368 -6.051,0 -10.523,-4.393 -10.523,-10.368 0,-5.975 4.472,-10.368 10.523,-10.368 C -4.471,-10.368 0,-5.975 0,0 m -24.821,0 c 0,7.901 6.09,13.799 14.376,13.799 8.21,0 14.299,-5.859 14.299,-13.799 0,-7.94 -6.089,-13.799 -14.299,-13.799 -8.286,0 -14.376,5.898 -14.376,13.799" /></g><g
           transform="translate(1551.3176,1118.0959)"
           id="g48"><path
             id="path50"
             style="fill:#ffffff;fill-opacity:1;fill-rule:nonzero;stroke:none"
             d="M 0,0 H 3.854 V -23.627 H 18.463 V -26.98 H 0 Z" /></g><g
           transform="translate(1604.0452,1104.6057)"
           id="g52"><path
             id="path54"
             style="fill:#ffffff;fill-opacity:1;fill-rule:nonzero;stroke:none"
             d="m 0,0 c 0,5.975 -4.471,10.368 -10.445,10.368 -6.051,0 -10.523,-4.393 -10.523,-10.368 0,-5.975 4.472,-10.368 10.523,-10.368 C -4.471,-10.368 0,-5.975 0,0 m -24.822,0 c 0,7.901 6.091,13.799 14.377,13.799 8.21,0 14.299,-5.859 14.299,-13.799 0,-7.94 -6.089,-13.799 -14.299,-13.799 -8.286,0 -14.377,5.898 -14.377,13.799" /></g><g
           transform="translate(1640.1985,1104.76)"
           id="g56"><path
             id="path58"
             style="fill:#ffffff;fill-opacity:1;fill-rule:nonzero;stroke:none"
             d="m 0,0 h 3.7 v -10.522 c -2.698,-2.275 -6.437,-3.431 -10.215,-3.431 -8.286,0 -14.377,5.82 -14.377,13.799 0,7.978 6.091,13.799 14.455,13.799 4.278,0 7.901,-1.426 10.368,-4.164 L 1.541,7.092 c -2.235,2.158 -4.779,3.122 -7.824,3.122 -6.244,0 -10.754,-4.356 -10.754,-10.368 0,-5.936 4.51,-10.368 10.716,-10.368 2.273,0 4.393,0.501 6.321,1.734 z" /></g><path
           id="path60"
           style="fill:#ffffff;fill-opacity:1;fill-rule:nonzero;stroke:none"
           d="m 1658.967,1118.096 h 3.854 v -26.98 h -3.854 z" /><g
           transform="translate(1694.4651,1100.9446)"
           id="g62"><path
             id="path64"
             style="fill:#ffffff;fill-opacity:1;fill-rule:nonzero;stroke:none"
             d="M 0,0 -5.82,13.22 -11.641,0 Z m 1.349,-3.084 h -14.338 l -2.968,-6.745 h -3.97 l 12.218,26.98 h 3.816 L 8.364,-9.829 H 4.316 Z" /></g><g
           transform="translate(1494.3918,1053.7522)"
           id="g66"><path
             id="path68"
             style="fill:#ffffff;fill-opacity:1;fill-rule:nonzero;stroke:none"
             d="M 0,0 C 0,2.005 1.619,3.508 3.508,3.508 5.357,3.508 6.977,2.005 6.977,0 6.977,-2.081 5.357,-3.546 3.508,-3.546 1.619,-3.546 0,-2.081 0,0" /></g><g
           transform="translate(1206.9065,995.1144)"
           id="g70"><path
             id="path72"
             style="fill:#ffffff;fill-opacity:1;fill-rule:nonzero;stroke:none"
             d="M 0,0 -0.039,19.657 -9.79,3.276 h -1.773 l -9.752,16.266 V 0 h -3.7 v 26.98 h 3.161 L -10.6,8.017 0.501,26.98 H 3.662 L 3.7,0 Z" /></g><g
           transform="translate(1242.2493,1004.9435)"
           id="g74"><path
             id="path76"
             style="fill:#ffffff;fill-opacity:1;fill-rule:nonzero;stroke:none"
             d="M 0,0 -5.82,13.22 -11.64,0 Z m 1.349,-3.084 h -14.338 l -2.968,-6.745 h -3.97 l 12.218,26.98 h 3.816 L 8.364,-9.829 H 4.317 Z" /></g><g
           transform="translate(1271.1169,1007.1017)"
           id="g78"><path
             id="path80"
             style="fill:#ffffff;fill-opacity:1;fill-rule:nonzero;stroke:none"
             d="m 0,0 -4.934,-5.011 v -6.976 h -3.854 v 26.98 h 3.854 v -15.07 l 14.647,15.07 h 4.394 L 2.583,2.852 14.839,-11.987 H 10.33 Z" /></g><path
           id="path82"
           style="fill:#ffffff;fill-opacity:1;fill-rule:nonzero;stroke:none"
           d="m 1297.749,1022.095 h 3.854 v -26.98 h -3.854 z" /><g
           transform="translate(1313.0125,998.6994)"
           id="g84"><path
             id="path86"
             style="fill:#ffffff;fill-opacity:1;fill-rule:nonzero;stroke:none"
             d="M 0,0 2.235,2.62 C 3.7,0.539 5.589,-0.578 7.863,-0.578 c 3.045,0 4.625,1.849 4.625,5.473 V 20.042 H 2.736 v 3.354 H 16.304 V 5.087 c 0,-6.013 -2.929,-8.981 -8.441,-8.981 C 4.664,-3.894 1.734,-2.506 0,0" /></g><g
           transform="translate(1360.1497,1004.9435)"
           id="g88"><path
             id="path90"
             style="fill:#ffffff;fill-opacity:1;fill-rule:nonzero;stroke:none"
             d="M 0,0 -5.82,13.22 -11.64,0 Z m 1.349,-3.084 h -14.338 l -2.968,-6.745 h -3.97 l 12.218,26.98 h 3.816 L 8.364,-9.829 H 4.317 Z" /></g><g
           transform="translate(1386.8591,1027.26)"
           id="g92"><path
             id="path94"
             style="fill:#ffffff;fill-opacity:1;fill-rule:nonzero;stroke:none"
             d="M 0,0 C 0,1.271 1.002,2.274 2.274,2.274 3.546,2.274 4.548,1.271 4.548,0 4.548,-1.311 3.546,-2.274 2.274,-2.274 1.002,-2.274 0,-1.311 0,0 m 13.529,-28.792 v -3.354 H -9.02 v 2.622 L 7.94,-8.519 H -8.75 v 3.354 H 13.028 V -7.786 L -3.854,-28.792 Z" /></g><g
           transform="translate(1449.2595,1012.6906)"
           id="g96"><path
             id="path98"
             style="fill:#ffffff;fill-opacity:1;fill-rule:nonzero;stroke:none"
             d="m 0,0 c 0,3.854 -2.582,6.051 -7.516,6.051 h -6.552 V -6.052 h 6.552 C -2.582,-6.052 0,-3.854 0,0 m 3.854,0 c 0,-5.858 -4.239,-9.405 -11.254,-9.405 h -6.668 v -8.171 h -3.855 V 9.404 H -7.4 C -0.385,9.404 3.854,5.858 3.854,0" /></g><g
           transform="translate(1486.0667,998.468)"
           id="g100"><path
             id="path102"
             style="fill:#ffffff;fill-opacity:1;fill-rule:nonzero;stroke:none"
             d="m 0,0 v -3.354 h -19.58 v 26.981 h 19.041 v -3.354 h -15.187 v -8.286 h 13.53 V 8.711 h -13.53 V 0 Z" /></g><g
           transform="translate(1517.9417,1012.6906)"
           id="g104"><path
             id="path106"
             style="fill:#ffffff;fill-opacity:1;fill-rule:nonzero;stroke:none"
             d="m 0,0 c 0,3.854 -2.582,6.051 -7.516,6.051 h -6.552 V -6.09 h 6.552 C -2.582,-6.09 0,-3.854 0,0 m 0.116,-17.576 -5.82,8.287 C -6.244,-9.328 -6.822,-9.366 -7.4,-9.366 h -6.668 v -8.21 h -3.855 V 9.404 H -7.4 C -0.385,9.404 3.854,5.858 3.854,0 c 0,-4.163 -2.158,-7.169 -5.935,-8.519 l 6.398,-9.057 z" /></g><g
           transform="translate(1560.762,995.1144)"
           id="g108"><path
             id="path110"
             style="fill:#ffffff;fill-opacity:1;fill-rule:nonzero;stroke:none"
             d="M 0,0 -0.038,19.657 -9.79,3.276 h -1.773 l -9.751,16.266 V 0 h -3.701 v 26.98 h 3.161 L -10.599,8.017 0.502,26.98 h 3.16 L 3.7,0 Z" /></g><g
           transform="translate(1596.1047,1004.9435)"
           id="g112"><path
             id="path114"
             style="fill:#ffffff;fill-opacity:1;fill-rule:nonzero;stroke:none"
             d="M 0,0 -5.82,13.22 -11.641,0 Z m 1.349,-3.084 h -14.338 l -2.968,-6.745 h -3.97 l 12.218,26.98 h 3.816 L 8.364,-9.829 H 4.316 Z" /></g><g
           transform="translate(1639.3879,1022.0949)"
           id="g116"><path
             id="path118"
             style="fill:#ffffff;fill-opacity:1;fill-rule:nonzero;stroke:none"
             d="m 0,0 v -26.98 h -3.16 l -16.189,20.12 v -20.12 h -3.854 V 0 h 3.161 L -3.854,-20.12 V 0 Z" /></g><g
           transform="translate(1674.7698,998.468)"
           id="g120"><path
             id="path122"
             style="fill:#ffffff;fill-opacity:1;fill-rule:nonzero;stroke:none"
             d="m 0,0 v -3.354 h -19.58 v 26.981 h 19.041 v -3.354 h -15.187 v -8.286 h 13.53 V 8.711 h -13.53 V 0 Z" /></g><g
           transform="translate(1711.9241,1022.0949)"
           id="g124"><path
             id="path126"
             style="fill:#ffffff;fill-opacity:1;fill-rule:nonzero;stroke:none"
             d="m 0,0 v -26.98 h -3.16 l -16.189,20.12 v -20.12 h -3.854 V 0 h 3.161 L -3.854,-20.12 V 0 Z" /></g><g
           transform="translate(1733.0842,1018.7414)"
           id="g128"><path
             id="path130"
             style="fill:#ffffff;fill-opacity:1;fill-rule:nonzero;stroke:none"
             d="M 0,0 H -9.25 V 3.354 H 13.066 V 0 H 3.816 V -23.627 H 0 Z" /></g><g
           transform="translate(1781.262,1022.0949)"
           id="g132"><path
             id="path134"
             style="fill:#ffffff;fill-opacity:1;fill-rule:nonzero;stroke:none"
             d="m 0,0 v -26.98 h -3.16 l -16.189,20.12 v -20.12 h -3.854 V 0 h 3.161 L -3.854,-20.12 V 0 Z" /></g><g
           transform="translate(1807.3938,1004.4416)"
           id="g136"><path
             id="path138"
             style="fill:#ffffff;fill-opacity:1;fill-rule:nonzero;stroke:none"
             d="m 0,0 v -9.327 h -3.816 v 9.404 l -10.715,17.576 h 4.124 L -1.773,3.431 6.899,17.653 h 3.816 z" /></g><g
           transform="translate(1170.0854,1257.6233)"
           id="g140"><path
             id="path142"
             style="fill:#ffffff;fill-opacity:1;fill-rule:nonzero;stroke:none"
             d="m 0,0 c -10.757,-13.76 -25.355,-22.957 -43.795,-27.591 -6.471,-1.521 -12.901,-2.281 -19.289,-2.281 -19.088,0 -36.577,5.72 -52.469,17.163 -15.892,11.441 -26.953,26.684 -33.18,45.731 -2.426,8.039 -3.639,15.968 -3.639,23.79 0,17.524 5.378,33.166 16.135,46.926 10.755,13.759 25.355,22.956 43.795,27.592 6.469,1.52 12.899,2.281 19.289,2.281 19.086,0 36.576,-5.722 52.469,-17.163 C -4.792,105.004 6.267,89.761 12.496,70.716 14.922,62.677 16.135,54.748 16.135,46.926 16.135,29.4 10.755,13.758 0,0 m 27.053,51.923 c 0,15.497 -4.287,29.655 -12.859,42.473 -8.573,12.818 -20.059,23.029 -34.454,30.633 -14.396,7.604 -30.37,11.406 -47.919,11.406 -17.47,0 -33.404,-3.802 -47.799,-11.406 -14.396,-7.604 -25.881,-17.815 -34.453,-30.633 -8.574,-12.818 -12.86,-26.976 -12.86,-42.473 0,-15.57 4.286,-29.764 12.86,-42.581 8.572,-12.818 20.057,-23.029 34.453,-30.633 14.395,-7.604 30.329,-11.406 47.799,-11.406 17.549,0 33.523,3.802 47.919,11.406 14.395,7.604 25.881,17.815 34.454,30.633 8.572,12.817 12.859,27.011 12.859,42.581" /></g><g
           transform="translate(1867.7185,1238.2833)"
           id="g144"><path
             id="path146"
             style="fill:#ffffff;fill-opacity:1;fill-rule:nonzero;stroke:none"
             d="m 0,0 c -10.383,-13.281 -24.471,-22.157 -42.268,-26.629 -6.246,-1.468 -12.451,-2.202 -18.617,-2.202 -18.422,0 -35.301,5.521 -50.64,16.565 -15.338,11.042 -26.013,25.754 -32.023,44.137 -2.342,7.758 -3.512,15.412 -3.512,22.96 0,16.914 5.19,32.01 15.572,45.291 10.381,13.279 24.471,22.156 42.268,26.629 6.244,1.468 12.449,2.202 18.617,2.202 18.421,0 35.302,-5.522 50.639,-16.565 C -4.625,101.344 6.049,86.632 12.06,68.251 14.402,60.492 15.573,52.839 15.573,45.291 15.573,28.376 10.381,13.279 0,0 m -19.553,120.671 c -13.895,7.338 -29.312,11.008 -46.249,11.008 -16.861,0 -32.239,-3.67 -46.133,-11.008 -13.895,-7.339 -24.979,-17.194 -33.252,-29.565 -8.275,-12.372 -12.411,-26.036 -12.411,-40.993 0,-15.028 4.136,-28.726 12.411,-41.097 8.273,-12.371 19.357,-22.226 33.252,-29.565 13.894,-7.338 29.272,-11.008 46.133,-11.008 16.937,0 32.354,3.67 46.249,11.008 13.893,7.339 24.977,17.194 33.252,29.565 8.273,12.371 12.411,26.069 12.411,41.097 0,14.957 -4.138,28.621 -12.411,40.993 -8.275,12.371 -19.359,22.226 -33.252,29.565" /></g><path
           id="path148"
           style="fill:#ffffff;fill-opacity:1;fill-rule:nonzero;stroke:none"
           d="m 1826.519,1392.45 h -49.137 v -3.426 h 49.137 z" /><path
           id="path150"
           style="fill:#ffffff;fill-opacity:1;fill-rule:nonzero;stroke:none"
           d="m 1078.012,1203.496 h 47.173 v 2.711 h -47.173 z" /><g
           transform="translate(993.2729,1377.376)"
           id="g152"><path
             id="path154"
             style="fill:#ffffff;fill-opacity:1;fill-rule:nonzero;stroke:none"
             d="M 0,0 C 0.786,6.098 2.71,11.676 5.768,16.738 H -14.245 L -73.172,-151.757 -131.96,16.738 h -20.985 c 3.057,-5.062 4.979,-10.64 5.767,-16.738 0.786,-6.098 1.181,-12.133 1.181,-18.106 v -118.842 c 0,-5.974 -0.395,-12.01 -1.181,-18.107 -0.788,-6.097 -2.71,-11.678 -5.767,-16.738 h 17.094 c -3.151,5.143 -5.12,10.868 -5.907,17.173 -0.788,6.305 -1.181,12.485 -1.181,18.542 V 3.173 c 4.354,-8.212 7.828,-16.425 10.423,-24.639 l 52.395,-150.327 h 14.037 l -5.42,15.68 46.418,133.154 c 2.593,8.627 6.207,17.338 10.841,26.132 v -139.251 c 0,-6.057 -0.396,-12.237 -1.181,-18.542 -0.789,-6.305 -2.758,-12.03 -5.907,-17.173 H 5.768 c -3.058,5.06 -4.982,10.641 -5.768,16.738 -0.788,6.097 -1.181,12.133 -1.181,18.107 V -18.106 C -1.181,-12.133 -0.788,-6.098 0,0" /></g><g
           transform="translate(1231.1411,1358.3984)"
           id="g156"><path
             id="path158"
             style="fill:#ffffff;fill-opacity:1;fill-rule:nonzero;stroke:none"
             d="m 0,0 c 0,6.055 0.393,12.237 1.181,18.542 0.787,6.304 2.756,12.029 5.907,17.174 h -27.101 c 3.058,-5.062 4.98,-10.641 5.768,-16.738 0.786,-6.098 1.181,-12.133 1.181,-18.107 v -86.985 c 0,-12.03 -0.858,-22.483 -2.571,-31.359 -1.715,-8.879 -5.398,-16.427 -11.049,-22.649 -5.653,-6.222 -14.085,-11.324 -25.294,-15.306 h 3.336 c 13.433,3.317 24.505,10.079 33.215,20.284 C -5.142,-123.033 0,-106.606 0,-85.865 Z" /></g><g
           transform="translate(1255.1166,1259.5916)"
           id="g160"><path
             id="path162"
             style="fill:#ffffff;fill-opacity:1;fill-rule:nonzero;stroke:none"
             d="m 0,0 36.551,109.011 c 1.853,-4.728 3.475,-9.376 4.865,-13.937 L 73.242,0 Z M 91.865,-15.057 C 75.928,32.977 63.652,69.645 55.035,94.949 c -1.761,5.143 -3.405,10.432 -4.933,15.867 -1.529,5.432 -2.294,10.597 -2.294,15.493 0,2.903 0.37,5.64 1.112,8.213 H 21.264 c 5.928,-6.306 10.423,-13.399 13.481,-21.28 L -8.061,-14.311 c -2.039,-6.72 -4.564,-13.586 -7.574,-20.595 -3.012,-7.012 -7.205,-13.378 -12.578,-19.102 h 17.094 c -0.742,2.489 -1.111,5.184 -1.111,8.089 0,4.81 0.764,9.912 2.293,15.306 1.529,5.392 3.173,10.618 4.934,15.68 l 4.169,12.32 h 75.048 l 3.614,-11.2 c 1.946,-5.227 3.704,-10.621 5.281,-16.177 1.574,-5.56 2.363,-10.827 2.363,-15.805 0,-2.905 -0.372,-5.643 -1.112,-8.213 h 27.656 c -5.281,5.64 -9.428,11.904 -12.438,18.79 -3.012,6.886 -5.583,13.605 -7.713,20.161" /></g><g
           transform="translate(1511.2585,1379.4915)"
           id="g164"><path
             id="path166"
             style="fill:#ffffff;fill-opacity:1;fill-rule:nonzero;stroke:none"
             d="m 0,0 c 3.937,5.102 8.986,8.814 15.149,11.138 6.16,2.321 12.53,3.485 19.109,3.485 8.523,0 15.657,-1.494 21.403,-4.481 5.744,-2.986 10.4,-6.949 13.968,-11.884 3.565,-4.937 6.345,-10.453 8.338,-16.551 1.991,-6.097 3.474,-12.362 4.447,-18.791 0.973,-6.43 1.738,-12.549 2.294,-18.355 l 0.138,70.062 -0.277,-0.996 C 84.29,11.552 83.665,9.54 82.692,7.591 81.72,5.641 80.073,4.583 77.759,4.418 c -1.112,0 -2.433,0.331 -3.961,0.996 -1.529,0.663 -3.267,1.493 -5.212,2.489 -2.41,1.325 -5.281,2.694 -8.617,4.106 -3.335,1.41 -7.136,2.633 -11.396,3.671 -4.263,1.036 -9.082,1.556 -14.454,1.556 -11.211,0 -20.825,-1.848 -28.838,-5.538 -8.015,-3.693 -14.176,-8.63 -18.484,-14.809 -4.308,-6.181 -6.462,-13.004 -6.462,-20.47 0.184,-9.625 2.571,-18.044 7.157,-25.262 4.586,-7.218 10.493,-13.689 17.72,-19.413 7.226,-5.725 14.822,-11.119 22.792,-16.178 11.21,-7.053 21.031,-14.603 29.463,-22.648 9.08,-8.711 13.62,-19.456 13.62,-32.231 0,-8.213 -1.993,-14.871 -5.975,-19.973 -3.986,-5.103 -9.059,-8.816 -15.219,-11.137 -6.162,-2.324 -12.532,-3.485 -19.109,-3.485 -8.526,0 -15.635,1.493 -21.333,4.48 -5.699,2.986 -10.354,6.948 -13.968,11.884 -3.613,4.935 -6.417,10.453 -8.408,16.551 -1.994,6.098 -3.474,12.36 -4.447,18.791 -0.973,6.428 -1.737,12.547 -2.293,18.355 v -70.061 l 0.278,1.369 c 0.369,2.073 0.994,4.045 1.876,5.911 0.879,1.867 2.478,2.8 4.794,2.8 1.203,0 2.572,-0.333 4.1,-0.995 1.529,-0.666 3.267,-1.494 5.212,-2.489 2.502,-1.328 5.396,-2.698 8.686,-4.107 3.287,-1.412 7.04,-2.613 11.257,-3.609 4.215,-0.995 9.01,-1.493 14.384,-1.493 11.303,0 20.987,1.867 29.047,5.6 8.061,3.733 14.222,8.73 18.484,14.995 4.261,6.263 6.393,13.169 6.393,20.719 -0.186,9.291 -2.525,17.401 -7.018,24.329 -4.495,6.926 -10.263,13.169 -17.303,18.729 -7.042,5.556 -14.453,10.826 -22.237,15.804 -7.504,4.811 -14.57,9.768 -21.194,14.871 -6.625,5.102 -12.045,10.783 -16.26,17.048 -4.217,6.263 -6.462,13.502 -6.74,21.715 v 2.739 C -5.906,-11.759 -3.939,-5.101 0,0" /></g><g
           transform="translate(1706.9423,1224.4989)"
           id="g168"><path
             id="path170"
             style="fill:#ffffff;fill-opacity:1;fill-rule:nonzero;stroke:none"
             d="m 0,0 c -3.985,6.968 -7.46,13.77 -10.424,20.408 -7.969,17.174 -20.523,43.761 -37.663,79.768 l 18.345,29.99 c 3.892,6.637 8.339,13.419 13.342,20.347 5.004,6.926 10.979,13.253 17.928,18.978 l -17.233,0.124 v -0.622 c 0,-6.306 -3.011,-14.769 -9.033,-25.387 -2.595,-4.479 -5.282,-8.878 -8.061,-13.19 L -75.744,60.354 v 73.671 c 0,6.054 0.393,12.214 1.182,18.479 0.786,6.263 2.71,11.966 5.767,17.111 h -27.1 c 3.148,-5.145 5.118,-10.889 5.906,-17.236 0.786,-6.346 1.181,-12.549 1.181,-18.604 V 16.924 c 0,-6.057 -0.395,-12.257 -1.181,-18.605 -0.788,-6.346 -2.758,-12.092 -5.906,-17.235 h 27.1 c -3.057,5.143 -4.981,10.846 -5.767,17.111 -0.789,6.263 -1.182,12.423 -1.182,18.48 v 38.328 l 19.596,31.982 31.41,-66.452 c 2.963,-5.892 5.697,-11.968 8.199,-18.231 2.502,-6.265 3.752,-12.051 3.752,-17.36 0,-1.328 -0.093,-2.613 -0.277,-3.858 H 15.148 C 9.033,-13.275 3.982,-6.969 0,0" /></g><g
           transform="translate(2047.6565,1259.5916)"
           id="g172"><path
             id="path174"
             style="fill:#ffffff;fill-opacity:1;fill-rule:nonzero;stroke:none"
             d="m 0,0 36.551,109.011 c 1.853,-4.728 3.474,-9.376 4.864,-13.937 L 73.241,0 Z m -95.967,60.977 h -22.375 l -0.139,70.807 6.81,0.125 c 4.169,0 9.103,-0.168 14.801,-0.498 5.698,-0.332 11.373,-1.244 17.025,-2.738 8.801,-2.407 15.635,-6.408 20.499,-12.008 4.864,-5.6 7.296,-12.507 7.296,-20.72 0,-5.724 -1.646,-11.262 -4.933,-16.613 -3.29,-5.351 -8.2,-9.749 -14.732,-13.191 -6.532,-3.443 -14.617,-5.164 -24.252,-5.164 M 112.016,-54.008 c -5.281,5.64 -9.428,11.904 -12.438,18.79 -3.012,6.886 -5.584,13.605 -7.714,20.161 -15.937,48.034 -28.212,84.702 -36.829,110.006 -1.761,5.143 -3.405,10.432 -4.933,15.867 -1.529,5.432 -2.293,10.597 -2.293,15.493 0,2.903 0.368,5.64 1.111,8.213 H 21.263 c 5.929,-6.306 10.424,-13.399 13.481,-21.28 L -8.061,-14.311 c -2.039,-6.72 -4.564,-13.586 -7.575,-20.595 -2.952,-6.875 -7.049,-13.125 -12.271,-18.762 -5.409,5.635 -9.778,11.845 -13.094,18.637 -3.383,6.926 -6.278,13.751 -8.686,20.471 l -28.351,73.919 c 13.064,2.321 22.814,7.093 29.255,14.311 6.438,7.218 9.659,14.974 9.659,23.271 0,7.133 -1.808,13.147 -5.421,18.044 -8.616,11.779 -24.738,18.209 -48.364,19.288 -4.725,0.165 -9.082,0.249 -13.065,0.249 h -32.52 c 3.057,-5.061 4.979,-10.64 5.768,-16.738 0.785,-6.097 1.181,-12.132 1.181,-18.106 V -19.164 c 0,-5.973 -0.396,-12.009 -1.181,-18.107 -0.789,-6.097 -2.711,-11.678 -5.768,-16.737 h 27.101 c -3.058,4.978 -4.982,10.515 -5.768,16.613 -0.788,6.098 -1.181,12.133 -1.181,18.106 v 77.652 h 26.406 c 6.484,-16.593 15.333,-39.615 26.545,-69.065 l 1.529,-3.983 c 2.223,-5.393 4.26,-10.95 6.114,-16.675 1.853,-5.724 2.78,-11.118 2.78,-16.177 0,-2.24 -0.278,-4.398 -0.834,-6.471 h 27.589 0.624 16.47 c -0.742,2.489 -1.112,5.184 -1.112,8.089 0,4.81 0.765,9.912 2.293,15.306 1.53,5.392 3.173,10.618 4.935,15.68 l 4.169,12.32 h 75.048 l 3.614,-11.2 c 1.945,-5.227 3.704,-10.621 5.281,-16.177 1.574,-5.56 2.362,-10.827 2.362,-15.805 0,-2.905 -0.371,-5.643 -1.112,-8.213 z" /></g></g></g><g
       id="g176"><g
         clip-path="url(#clipPath182)"
         id="g178"><g
           transform="translate(1570.5089,1640.1122)"
           id="g184"><path
             id="path186"
             style="fill:#ffffff;fill-opacity:1;fill-rule:nonzero;stroke:none"
             d="m 0,0 c 1.874,3.094 3.412,6.703 4.577,11.145 8.292,31.628 -47.526,82.913 -77.085,119.375 13.763,0.418 27.216,9.71 27.216,28.167 0,6.598 -1.798,14.394 -5.996,23.689 0,0 -7.721,16.311 -19.115,40 l 50.656,108.897 C -12.907,297.562 19.002,141.859 34.977,59.956 30.202,36.209 17.611,15.29 0,0 m -175.601,58.102 c 9.268,72.467 28.022,245.94 31.657,266.707 18.682,-36.529 42.805,-84.974 57.669,-114.735 -11.797,-12.751 -22.847,-23.685 -26.078,-36.008 -16.223,-61.88 113.699,-95.23 94.685,-167.755 -5.17,-19.721 -15.857,-24.929 -28.724,-28.657 -5.857,-1.697 -11.032,-2.872 -15.668,-3.645 -2.788,-0.217 -5.606,-0.329 -8.449,-0.329 -51.468,0 -94.489,36.138 -105.092,84.422 m -2.511,193.053 c 0,28.6 11.162,54.591 29.362,73.863 v -0.209 c -3.372,-19.507 -19.801,-170.307 -29.284,-247.45 -0.046,1.303 -0.078,2.61 -0.078,3.925 z m 88.377,-92.027 c -2.036,10.609 -0.374,19.772 -0.374,19.773 0.847,3.229 1.772,6.117 2.766,8.797 l 4.354,9.991 c 0.523,1.063 1.058,2.121 1.603,3.185 5.328,-10.675 8.516,-18.515 9.707,-20.897 4.198,-8.396 6.597,-17.391 6.597,-24.288 0,-11.037 -5.714,-17.225 -12.438,-18.78 -6.522,8.641 -11.066,16.228 -12.215,22.219 m 19.226,199.63 c 19.196,0 37.213,-5.032 52.816,-13.84 -2.502,-5.204 -5.005,-10.407 -7.508,-15.611 -15.793,-34.184 -31.585,-68.368 -47.377,-102.552 -17.896,37.189 -42.304,88.185 -55.488,115.326 16.646,10.559 36.386,16.677 57.557,16.677 M 37.094,251.155 V 123.516 C 21.346,203.62 1.444,299.509 -6.052,337.323 20.143,317.696 37.094,286.406 37.094,251.155 M -70.335,365.082 h -0.348 c -66.225,0 -119.912,-53.686 -119.912,-119.912 V 86.876 c 0,-66.225 53.687,-119.912 119.912,-119.912 h 0.348 c 66.225,0 119.912,53.687 119.912,119.912 V 245.17 c 0,66.226 -53.687,119.912 -119.912,119.912" /></g></g></g></g></svg>
