<?xml version="1.0" encoding="UTF-8" standalone="no"?>
<svg
   version="1.1"
   id="svg2"
   width="629.8667"
   height="1044.08"
   viewBox="0 0 629.8667 1044.08"
   xmlns="http://www.w3.org/2000/svg">
  <defs id="defs6" />
  <g
     id="g8"
     transform="matrix(1.3333333,0,0,-1.3333333,0,1044.08)">
    <g
       id="g10"
       transform="scale(0.1)">
      <path
         d="m 3748.82,649.781 c 36.86,60.86 67.11,131.848 90.01,219.211 163.1,622.098 -934.78,1630.828 -1516.17,2347.998 270.7,8.21 535.32,190.98 535.32,554.02 0,129.76 -35.38,283.11 -117.96,465.94 0,0 -151.85,320.81 -375.97,786.74 l 996.36,2141.9 C 3494.94,6502.53 4122.56,3440.01 4436.78,1829.07 4342.86,1361.98 4095.22,950.52 3748.82,649.781 Z M 294.926,1792.59 C 477.219,3217.95 846.086,6629.99 917.57,7038.46 1285.04,6319.97 1759.5,5367.1 2051.86,4781.73 1819.83,4530.94 1602.49,4315.87 1538.94,4073.5 1219.85,2856.38 3775.29,2200.41 3401.31,773.91 3299.61,386.02 3089.41,283.59 2836.33,210.262 2721.13,176.879 2619.34,153.77 2528.15,138.57 c -54.84,-4.257 -110.25,-6.468 -166.17,-6.468 -1012.33,0 -1858.503,710.789 -2067.054,1660.488 z m -49.403,3797.16 c 0,562.54 219.54,1073.76 577.532,1452.83 v -4.12 C 756.73,6654.77 433.578,3688.7 247.07,2171.35 c -0.918,25.64 -1.547,51.35 -1.547,77.2 z M 1983.81,3779.67 c -40.04,208.67 -7.34,388.91 -7.34,388.92 16.66,63.52 34.85,120.32 54.4,173.03 l 85.64,196.51 c 10.28,20.91 20.81,41.72 31.53,62.65 104.78,-209.97 167.5,-364.17 190.92,-411.02 82.58,-165.14 129.76,-342.07 129.76,-477.73 0,-217.08 -112.39,-338.8 -244.64,-369.37 -128.28,169.96 -217.67,319.18 -240.27,437.01 z m 378.17,3926.53 c 377.55,0 731.94,-98.97 1038.84,-272.22 -49.23,-102.35 -98.46,-204.69 -147.68,-307.04 -310.63,-672.37 -621.25,-1344.74 -931.87,-2017.1 -351.99,731.47 -832.08,1734.51 -1091.38,2268.35 327.41,207.68 715.67,328.01 1132.09,328.01 z M 4478.43,5589.75 V 3079.22 C 4168.67,4654.8 3777.22,6540.83 3629.78,7284.6 4145.01,6898.57 4478.43,6283.1 4478.43,5589.75 Z M 2365.39,7830.59 h -6.83 C 1055.97,7830.59 0,6774.63 0,5472.04 V 2358.56 C 0,1055.96 1055.97,0 2358.56,0 h 6.83 c 1302.59,0 2358.56,1055.96 2358.56,2358.56 v 3113.48 c 0,1302.59 -1055.97,2358.55 -2358.56,2358.55"
         style="fill:#231f20;fill-opacity:1;fill-rule:nonzero;stroke:none"
         id="path12" />
    </g>
  </g>
</svg>
